HIERARCHY
ROOT Hips
{
	OFFSET 54.971600 -13.692214 85.721001
	CHANNELS 6 Xposition Yposition Zposition Xrotation Yrotation Zrotation
	JOINT spine
	{
		OFFSET 0.000000 -0.367607 6.392601
		CHANNELS 3 Xrotation Yrotation Zrotation
		JOINT spine1
		{
			OFFSET 0.000000 -0.000001 9.176109
			CHANNELS 3 Xrotation Yrotation Zrotation
			JOINT spine2
			{
				OFFSET 0.000000 -0.000002 8.792381
				CHANNELS 3 Xrotation Yrotation Zrotation
				JOINT Neck
				{
					OFFSET 0.000000 -1.076243 22.573700
					CHANNELS 3 Xrotation Yrotation Zrotation
					JOINT Head
					{
						OFFSET 0.000000 -0.000001 6.820114
						CHANNELS 3 Xrotation Yrotation Zrotation
						End Site
						{
							OFFSET 0.000000 5.444267 16.508499
						}
					}
				}
				JOINT RightShoulder
				{
					OFFSET -3.702209 0.515507 9.495087
					CHANNELS 3 Xrotation Yrotation Zrotation
					JOINT RightArm
					{
						OFFSET 0.000000 -0.000003 12.453705
						CHANNELS 3 Xrotation Yrotation Zrotation
						JOINT RightArmRoll
						{
							OFFSET 0.000000 -0.000001 6.286865
							CHANNELS 3 Xrotation Yrotation Zrotation
							JOINT RightForeArm
							{
								OFFSET 0.000000 -0.000003 18.311401
								CHANNELS 3 Xrotation Yrotation Zrotation
								JOINT RightForeArmRoll
								{
									OFFSET 0.000000 -0.000001 7.054825
									CHANNELS 3 Xrotation Yrotation Zrotation
									JOINT RightHand
									{
										OFFSET 0.000000 -0.000002 14.157501
										CHANNELS 3 Xrotation Yrotation Zrotation
										End Site
										{
											OFFSET 0.000000 0.000000 0.100006
										}
									}
								}
							}
						}
					}
				}
				JOINT LeftShoulder
				{
					OFFSET 3.702209 0.515507 9.495087
					CHANNELS 3 Xrotation Yrotation Zrotation
					JOINT LeftArm
					{
						OFFSET 0.000000 -0.000003 12.453705
						CHANNELS 3 Xrotation Yrotation Zrotation
						JOINT LeftArmRoll
						{
							OFFSET 0.000000 -0.000001 6.286865
							CHANNELS 3 Xrotation Yrotation Zrotation
							JOINT LeftForeArm
							{
								OFFSET 0.000000 -0.000003 18.311401
								CHANNELS 3 Xrotation Yrotation Zrotation
								JOINT LeftForeArmRoll
								{
									OFFSET 0.000000 -0.000001 7.054825
									CHANNELS 3 Xrotation Yrotation Zrotation
									JOINT LeftHand
									{
										OFFSET 0.000000 -0.000002 14.157501
										CHANNELS 3 Xrotation Yrotation Zrotation
										End Site
										{
											OFFSET 0.000000 0.000000 0.100006
										}
									}
								}
							}
						}
					}
				}
			}
		}
	}
	JOINT RightUpLeg
	{
		OFFSET -5.666161 0.871611 -1.039032
		CHANNELS 3 Xrotation Yrotation Zrotation
		JOINT RightUpLegRoll
		{
			OFFSET 0.000000 -0.000003 16.600502
			CHANNELS 3 Xrotation Yrotation Zrotation
			JOINT RightLeg
			{
				OFFSET 0.000000 0.000003 -20.557198
				CHANNELS 3 Xrotation Yrotation Zrotation
				JOINT RightLegRoll
				{
					OFFSET 0.000000 -0.000003 20.624397
					CHANNELS 3 Xrotation Yrotation Zrotation
					JOINT RightFoot
					{
						OFFSET 0.000000 -0.000003 17.166397
						CHANNELS 3 Xrotation Yrotation Zrotation
						JOINT RightToeBase
						{
							OFFSET 0.000000 -0.000003 14.350204
							CHANNELS 3 Xrotation Yrotation Zrotation
							End Site
							{
								OFFSET 0.006081 0.801060 6.949707
							}
						}
					}
				}
			}
		}
	}
	JOINT LeftUpLeg
	{
		OFFSET 5.666161 0.871611 -1.039032
		CHANNELS 3 Xrotation Yrotation Zrotation
		JOINT LeftUpLegRoll
		{
			OFFSET 0.000000 -0.000003 16.600601
			CHANNELS 3 Xrotation Yrotation Zrotation
			JOINT LeftLeg
			{
				OFFSET 0.000000 -0.000004 20.557098
				CHANNELS 3 Xrotation Yrotation Zrotation
				JOINT LeftLegRoll
				{
					OFFSET 0.000000 -0.000003 20.815102
					CHANNELS 3 Xrotation Yrotation Zrotation
					JOINT LeftFoot
					{
						OFFSET 0.000000 -0.000003 16.975693
						CHANNELS 3 Xrotation Yrotation Zrotation
						JOINT LeftToeBase
						{
							OFFSET 0.000000 -0.000003 14.350204
							CHANNELS 3 Xrotation Yrotation Zrotation
							End Site
							{
								OFFSET -0.027260 0.801060 6.949707
							}
						}
					}
				}
			}
		}
	}
}
MOTION
Frames: 7
Frame Time: 0.041667
54.537800 -14.002217 85.749611 -4.349661 1.841375 -3.223535 -0.952618 -0.000262 -0.109066 2.073800 0.000778 -0.210592 3.718870 -0.001869 -0.210843 4.974813 -3.842623 -0.029732 5.581681 1.121090 0.469358 -5.576670 -61.569142 -6.785974 -45.395561 -116.018249 -38.667716 0.000002 0.000013 -0.000008 3.842566 -13.840322 0.074862 0.000002 0.000006 -3.010859 -5.000244 -7.998724 0.000190 -2.669916 54.110254 2.595781 -35.923076 117.696426 32.854576 0.000002 0.000009 0.000013 3.545518 9.885399 0.233099 -0.000002 0.000001 2.999999 -5.000246 7.998804 -0.000157 2.531615 -176.759162 -0.000592 -179.999991 0.000005 -1.151005 174.805632 -2.068478 -0.494999 0.000002 0.000002 0.035150 68.842850 6.916818 2.074888 25.456957 -7.355614 -0.000000 2.317354 173.531256 -0.783343 -0.000005 -0.000005 -1.100710 -7.419862 1.025392 0.635772 -0.000006 0.000001 -0.030040 69.503288 -6.420784 -3.329556 25.457461 7.355618 -0.000851 
54.537899 -14.005516 85.740997 -4.353272 1.842224 -3.225244 -0.952425 -0.000514 -0.109076 2.075450 0.000835 -0.211334 3.720521 -0.001807 -0.211568 4.971818 -3.844743 -0.031185 5.589536 1.122479 0.468090 -5.584066 -61.567831 -6.794469 -45.393547 -116.021295 -38.672787 -0.000000 0.000012 -0.000008 3.853978 -13.842740 0.076373 0.000001 0.000005 -3.010860 -5.000240 -7.998724 0.000190 -2.676047 54.109517 2.603129 -35.929493 117.701781 32.863657 0.000002 0.000009 0.000012 3.545763 9.884868 0.233130 -0.000003 0.000001 3.000000 -5.000244 7.998805 -0.000158 2.535499 -176.761170 -0.001333 -179.999991 0.000005 -1.151005 174.806206 -2.067487 -0.494888 0.000002 0.000002 0.035150 68.842631 6.916807 2.075000 25.456957 -7.355613 -0.000001 2.324318 173.532280 -0.784067 -0.000004 -0.000005 -1.100730 -7.416723 1.025479 0.635773 -0.000006 0.000000 -0.030041 69.503609 -6.420803 -3.327440 25.457462 7.355618 -0.000851 
54.535400 -14.006112 85.741798 -4.356988 1.843062 -3.227010 -0.952211 -0.000776 -0.109088 2.077190 0.000899 -0.212103 3.722261 -0.001738 -0.212318 4.968604 -3.846874 -0.032683 5.597431 1.123857 0.466788 -5.591552 -61.566226 -6.803056 -45.390060 -116.025052 -38.676523 -0.000000 0.000011 -0.000009 3.865627 -13.845249 0.077923 0.000001 0.000005 -3.010860 -5.000239 -7.998725 0.000190 -2.682633 54.108666 2.611011 -35.936467 117.707286 32.873270 0.000003 0.000010 0.000012 3.545797 9.884268 0.233176 -0.000003 0.000001 3.000001 -5.000244 7.998805 -0.000157 2.539431 -176.762167 -0.002031 -179.999991 0.000005 -1.151004 174.806807 -2.066496 -0.494776 0.000002 0.000002 0.035151 68.842535 6.916799 2.075005 25.456955 -7.355613 -0.000001 2.331502 173.532308 -0.784845 -0.000005 -0.000004 -1.100760 -7.413412 1.025586 0.635772 -0.000007 0.000000 -0.030041 69.503930 -6.420822 -3.325325 25.457462 7.355617 -0.000852 
54.538502 -14.006516 85.744301 -4.360763 1.843900 -3.228824 -0.951979 -0.001046 -0.109105 2.078980 0.000967 -0.212888 3.724041 -0.001664 -0.213085 4.965237 -3.849005 -0.034211 5.605362 1.125235 0.465458 -5.599065 -61.564416 -6.811653 -45.388052 -116.028098 -38.682117 0.000002 0.000012 -0.000008 3.877445 -13.847859 0.079508 -0.000000 0.000005 -3.010860 -5.000243 -7.998724 0.000190 -2.689536 54.107710 2.619270 -35.943433 117.712792 32.882918 -0.000000 0.000009 0.000012 3.545662 9.883631 0.233232 -0.000002 0.000001 3.000000 -5.000242 7.998804 -0.000159 2.543423 -176.764189 -0.002771 -179.999991 0.000005 -1.151005 174.807422 -2.065491 -0.494663 0.000001 0.000002 0.035150 68.842330 6.916822 2.074921 25.456957 -7.355614 -0.000002 2.338839 173.532349 -0.785632 -0.000005 -0.000004 -1.100790 -7.410004 1.025723 0.635772 -0.000007 0.000000 -0.030040 69.504148 -6.420870 -3.323122 25.457459 7.355616 -0.000851 
54.542900 -14.016319 85.743401 -4.364576 1.844728 -3.230667 -0.951738 -0.001319 -0.109124 2.080800 0.001038 -0.213685 3.725860 -0.001588 -0.213865 4.961783 -3.851138 -0.035758 5.613318 1.126602 0.464116 -5.606641 -61.562599 -6.820316 -45.384421 -116.031773 -38.686051 -0.000002 0.000012 -0.000008 3.889359 -13.850566 0.081109 -0.000000 0.000006 -3.010860 -5.000241 -7.998724 0.000190 -2.696608 54.106754 2.627737 -35.950749 117.718406 32.892910 0.000003 0.000009 0.000012 3.545441 9.882964 0.233294 -0.000004 0.000001 3.000001 -5.000244 7.998806 -0.000157 2.547433 -176.766197 -0.003514 -179.999991 0.000004 -1.151005 174.808037 -2.064500 -0.494550 0.000002 0.000002 0.035150 68.842207 6.916781 2.075021 25.456952 -7.355613 -0.000000 2.346270 173.533387 -0.786384 -0.000005 -0.000004 -1.100830 -7.406524 1.025860 0.635772 -0.000006 0.000001 -0.030041 69.504483 -6.420924 -3.320810 25.457461 7.355618 -0.000851 
54.541599 -14.015516 85.752998 -4.368400 1.845556 -3.232510 -0.951496 -0.001595 -0.109143 2.082630 0.001109 -0.214484 3.727691 -0.001511 -0.214645 4.958306 -3.853280 -0.037307 5.621283 1.127971 0.462770 -5.614197 -61.560679 -6.828966 -45.380945 -116.035529 -38.690160 0.000001 0.000012 -0.000008 3.901289 -13.853170 0.082709 0.000001 0.000006 -3.010859 -5.000240 -7.998726 0.000190 -2.703755 54.105893 2.636280 -35.956773 117.724785 32.901479 0.000001 0.000009 0.000012 3.545189 9.882299 0.233359 -0.000004 0.000001 2.999999 -5.000244 7.998804 -0.000157 2.551444 -176.768192 -0.004254 -179.999991 0.000004 -1.151005 174.808665 -2.064503 -0.494528 0.000001 0.000002 0.035150 68.841996 6.916806 2.074940 25.456953 -7.355613 -0.000000 2.353737 173.533414 -0.787180 -0.000005 -0.000004 -1.100870 -7.403020 1.026017 0.635772 -0.000007 0.000000 -0.030041 69.504715 -6.420971 -3.318507 25.457461 7.355618 -0.000851 
54.533001 -13.998016 85.749290 -4.372205 1.846385 -3.234354 -0.951255 -0.001867 -0.109161 2.084440 0.001179 -0.215277 3.729501 -0.001436 -0.215420 4.954872 -3.855412 -0.038850 5.629241 1.129349 0.461429 -5.621732 -61.558760 -6.837574 -45.378933 -116.038589 -38.695836 0.000001 0.000012 -0.000008 3.913180 -13.855874 0.084311 0.000000 0.000005 -3.010860 -5.000239 -7.998724 0.000190 -2.710793 54.104937 2.644702 -35.964102 117.730400 32.911468 0.000004 0.000009 0.000012 3.544989 9.881641 0.233418 -0.000003 0.000001 3.000000 -5.000241 7.998805 -0.000157 2.555460 -176.769216 -0.004953 -179.999991 0.000005 -1.151005 174.809293 -2.063511 -0.494414 0.000002 0.000002 0.035150 68.841798 6.916827 2.074957 25.456955 -7.355614 -0.000000 2.361147 173.533455 -0.787971 -0.000004 -0.000005 -1.100900 -7.399562 1.026154 0.635772 -0.000007 -0.000000 -0.030041 69.504941 -6.421020 -3.316302 25.457459 7.355617 -0.000851 
